<?xml version="1.0" encoding="UTF-8"?>
<svg id="Layer_2" data-name="Layer 2" xmlns="http://www.w3.org/2000/svg" viewBox="0 0 4105.65 809">
  <defs>
    <style>
      .cls-1 {
        fill: #b09870;
      }
    </style>
  </defs>
  <g id="Layer_1-2" data-name="Layer 1">
    <g>
      <path class="cls-1" d="M88.99,84.37c0-20.03-7.32-37.18-21.96-51.43-14.64-14.25-31.97-21.38-52.01-21.38H1.16L0,0h401.03c85.52,0,159.87,16.57,223.05,49.7,63.18,33.13,112.49,80.13,147.93,141,7.88,13.54,14.88,27.59,21.01,42.15h-117.09c-2.82-7.27-5.85-14.39-9.09-21.35-25.43-54.7-61.25-97.08-107.48-127.13-46.23-30.05-100.55-45.07-162.96-45.07h-199.94v730.41h199.94c62.41,0,116.73-15.02,162.96-45.07,46.23-30.05,82.06-72.42,107.48-127.13,3.24-6.96,6.26-14.08,9.09-21.35h116.95c-6.09,14.37-13.05,28.23-20.87,41.58-35.44,60.48-84.75,107.48-147.93,141-63.18,33.52-137.53,50.27-223.05,50.27H0v-11.56h15.02c20.03,0,37.18-7.13,51.43-21.38,14.25-14.25,21.77-31.4,22.54-51.43V84.37Z"/>
      <path class="cls-1" d="M3944.88,307.06c-.23-6.1-2.52-11.32-6.86-15.65-4.34-4.34-9.56-6.51-15.65-6.51h-4.57v-3.52h123.72c5.09-.01,10.46-.36,16.12-1.06,5.75-.7,11.08-1.52,16.01-2.46,4.92-.94,8.44-1.88,10.55-2.81v55.58h-3.52v-4.93c0-8.91-2.81-16.24-8.44-21.99-4.68-4.78-10.66-7.65-17.94-8.62h-66.49v104.48h50.66c7.27-.23,13.37-2.81,18.29-7.74,4.92-4.92,7.39-11.02,7.39-18.29v-3.52h3.52v72.47h-3.52v-3.87c0-7.27-2.46-13.37-7.39-18.29-4.92-4.93-11.02-7.39-18.29-7.39h-50.66v100.96h47.14c11.96,0,22.28-2.17,30.96-6.51,8.68-4.34,15.95-10.55,21.81-18.64,5.86-8.09,10.67-17.41,14.42-27.97h3.52l-17.59,66.84h-170.26v-3.52h4.57c6.1,0,11.32-2.17,15.65-6.51,4.34-4.34,6.62-9.56,6.86-15.65v-194.89h0ZM463.52,501.94c.23,6.1,2.52,11.32,6.86,15.65,4.34,4.34,9.56,6.51,15.65,6.51h4.57v3.52h-97.09v-3.52h4.57c6.1,0,11.32-2.17,15.65-6.51s6.62-9.56,6.86-15.65v-194.89c0-6.1-2.23-11.32-6.68-15.65-4.46-4.34-9.73-6.51-15.83-6.51h-4.22l-.35-3.52h108.7c18.53,0,33.83,2.87,45.91,8.62,12.08,5.75,21.17,13.66,27.26,23.75,6.1,10.08,9.26,21.81,9.5,35.18.23,11.73-1.82,22.28-6.16,31.66-4.34,9.38-10.32,17.24-17.94,23.57-7.62,6.33-16.18,10.96-25.68,13.9-9.5,2.93-19.41,3.75-29.73,2.46-10.32-1.29-20.29-4.87-29.9-10.73v-3.52s1.58.12,4.75.35c3.17.23,7.33-.06,12.49-.88,5.16-.82,10.61-2.46,16.36-4.92,5.75-2.46,11.08-6.45,16.01-11.96,4.93-5.51,8.68-12.84,11.26-21.99.94-3.05,1.58-6.45,1.93-10.2.35-3.75.41-7.39.18-10.91-.23-15.48-4.34-27.85-12.31-37.11-7.97-9.26-19.23-13.9-33.77-13.9h-28.85v207.2h0ZM698.94,307.06c-.23-6.1-2.52-11.32-6.86-15.65-4.34-4.34-9.56-6.51-15.65-6.51h-4.57v-3.52h123.72c5.09-.01,10.46-.36,16.12-1.06,5.75-.7,11.08-1.52,16.01-2.46,4.93-.94,8.44-1.88,10.55-2.81v55.58h-3.52v-4.93c0-8.91-2.81-16.24-8.44-21.99-4.68-4.78-10.66-7.65-17.94-8.62h-66.49v104.48h50.66c7.27-.23,13.37-2.81,18.29-7.74,4.93-4.92,7.39-11.02,7.39-18.29v-3.52h3.52v72.47h-3.52v-3.87c0-7.27-2.46-13.37-7.39-18.29-4.92-4.93-11.02-7.39-18.29-7.39h-50.66v100.96h47.14c11.96,0,22.28-2.17,30.96-6.51,8.68-4.34,15.95-10.55,21.81-18.64,5.86-8.09,10.67-17.41,14.42-27.97h3.52l-17.59,66.84h-170.26v-3.52h4.57c6.1,0,11.32-2.17,15.65-6.51,4.34-4.34,6.62-9.56,6.86-15.65v-194.89h0ZM1015.62,501.94c0,6.1,2.23,11.32,6.68,15.65,4.46,4.34,9.73,6.51,15.83,6.51h4.22v3.52h-96.74v-3.52h4.57c6.1,0,11.32-2.17,15.65-6.51,4.34-4.34,6.62-9.56,6.86-15.65v-194.89c-.23-6.1-2.52-11.32-6.86-15.65-4.34-4.34-9.56-6.51-15.65-6.51h-4.57v-3.52h112.22c10.55,0,20.58,1.29,30.08,3.87,9.5,2.58,17.88,6.57,25.15,11.96,7.27,5.39,12.96,12.25,17.06,20.58,4.1,8.33,6.16,18.23,6.16,29.73,0,10.32-2.23,20.52-6.68,30.61-4.46,10.08-11.02,18.47-19.7,25.15-8.68,6.68-19.35,10.49-32.01,11.43,6.33,2.11,12.37,6.04,18.12,11.79,5.75,5.75,10.49,11.43,14.25,17.06.23.23,1.7,2.4,4.4,6.51,2.7,4.1,6.04,9.09,10.03,14.95,3.99,5.86,8.15,11.73,12.49,17.59,4.34,5.86,8.15,10.79,11.43,14.78,5.16,6.1,9.91,11.08,14.25,14.95,4.34,3.87,8.97,6.8,13.9,8.79,4.93,1.99,10.55,2.99,16.89,2.99v3.52h-29.2c-12.2,0-23.04-1.29-32.54-3.87-9.5-2.58-17.77-6.45-24.8-11.61-7.04-5.16-13.13-11.61-18.29-19.35-1.41-2.11-3.4-5.34-5.98-9.67-2.58-4.34-5.39-9.2-8.44-14.6-3.05-5.39-6.04-10.61-8.97-15.65s-5.39-9.56-7.39-13.54c-1.99-3.99-3.34-6.8-4.05-8.44-3.75-6.8-7.86-12.31-12.31-16.53-4.46-4.22-9.26-6.57-14.42-7.04v-3.52c.47,0,1.99.06,4.57.18,2.58.12,5.51.06,8.79-.18,6.33-.23,12.72-1.41,19.17-3.52,6.45-2.11,12.25-6.04,17.41-11.79,5.16-5.75,8.91-13.78,11.26-24.1.47-2.11.94-4.81,1.41-8.09.47-3.28.59-6.68.35-10.2-.7-16.42-4.92-28.85-12.66-37.29-7.74-8.44-17.59-12.9-29.55-13.37-4.46-.23-9.15-.29-14.07-.18-4.93.12-9.21.18-12.84.18h-5.45v206.5h0ZM1327.02,501.94c.23,6.1,2.52,11.32,6.86,15.65,4.34,4.34,9.56,6.51,15.65,6.51h4.57v3.52h-97.09v-3.52h4.57c6.1,0,11.32-2.17,15.65-6.51,4.34-4.34,6.62-9.56,6.86-15.65v-194.89c-.23-6.1-2.52-11.32-6.86-15.65-4.34-4.34-9.56-6.51-15.65-6.51h-4.57v-3.52h123.72c5.09-.01,10.46-.36,16.12-1.06,5.75-.7,11.08-1.52,16.01-2.46,4.93-.94,8.44-1.88,10.55-2.81v53.12h-3.52v-4.57c0-8.44-2.64-15.3-7.92-20.58-5.28-5.28-12.25-7.92-20.93-7.92h-64.03v104.48h50.66c7.27-.23,13.37-2.81,18.29-7.74,4.93-4.92,7.39-11.02,7.39-18.29v-3.52h3.52v72.47h-3.52v-3.87c0-7.27-2.46-13.37-7.39-18.29-4.92-4.93-11.02-7.39-18.29-7.39h-50.66v89h0ZM1771.75,281.37v3.52h-5.63c-5.16,0-9.56,1.64-13.19,4.93-3.64,3.28-5.45,7.5-5.45,12.66v136.85c0,18.76-3.99,35.12-11.96,49.07-7.97,13.95-19.41,24.8-34.3,32.54-14.89,7.74-32.54,11.61-52.94,11.61-22.98,0-42.63-3.81-58.92-11.43-16.3-7.62-28.67-18.41-37.11-32.36-8.44-13.95-12.66-30.31-12.66-49.07v-137.2c0-5.16-1.82-9.38-5.45-12.66-3.64-3.28-8.03-4.93-13.19-4.93h-5.63v-3.52h91.46v3.52h-5.63c-5.16,0-9.56,1.64-13.19,4.93-3.63,3.28-5.45,7.5-5.45,12.66v133.68c0,16.65,2.87,31.19,8.62,43.62,5.75,12.43,13.9,22.05,24.45,28.85,10.55,6.8,22.87,10.2,36.94,10.2,15.01,0,27.91-3.22,38.7-9.67,10.79-6.45,19.17-15.48,25.15-27.09,5.98-11.61,8.97-25.39,8.97-41.34v-138.25c0-5.16-1.82-9.38-5.45-12.66-3.64-3.28-8.03-4.93-13.19-4.93h-5.63v-3.52h70.71ZM2098.98,507.57h.06l-14.38-140.48-68.7,128.87s-1.05,2.05-3.17,6.16c-2.11,4.1-4.22,9.09-6.33,14.95-2.11,5.86-3.28,11.49-3.52,16.89h-3.52l-90.07-165.65-14.44,139.27h.03v1.76c0,3.75,1.35,7.21,4.05,10.38,2.7,3.17,5.92,4.75,9.67,4.75h5.28v3.17h-71.76v-3.52h5.63c6.33,0,11.96-1.93,16.89-5.81,4.93-3.87,7.86-9.32,8.79-16.36h.03l28.11-225.5h3.52l105.09,189.43,102.11-189.43h3.17l29.06,225.5h.14c1.17,7.04,4.16,12.49,8.97,16.36,4.81,3.87,10.38,5.81,16.71,5.81h5.63v3.52h-96.04v-3.17h5.28c3.99,0,7.27-1.58,9.85-4.75,2.58-3.17,3.87-6.63,3.87-10.38v-1.76h0ZM2276.7,307.06c-.23-6.1-2.52-11.32-6.86-15.65-4.34-4.34-9.56-6.51-15.65-6.51h-4.57v-3.52h123.72c5.09-.01,10.46-.36,16.12-1.06,5.75-.7,11.08-1.52,16.01-2.46,4.92-.94,8.44-1.88,10.55-2.81v55.58h-3.52v-4.93c0-8.91-2.81-16.24-8.44-21.99-4.68-4.78-10.66-7.65-17.94-8.62h-66.49v104.48h50.66c7.27-.23,13.37-2.81,18.29-7.74,4.92-4.92,7.39-11.02,7.39-18.29v-3.52h3.52v72.47h-3.52v-3.87c0-7.27-2.46-13.37-7.39-18.29-4.92-4.93-11.02-7.39-18.29-7.39h-50.66v100.96h47.14c11.96,0,22.28-2.17,30.96-6.51,8.68-4.34,15.95-10.55,21.81-18.64,5.86-8.09,10.67-17.41,14.42-27.97h3.52l-17.59,66.84h-170.26v-3.52h4.57c6.1,0,11.32-2.17,15.65-6.51s6.62-9.56,6.86-15.65v-194.89h0ZM2846.32,281.37h28.14v3.52h-4.57c-6.1,0-11.32,2.17-15.65,6.51-4.34,4.34-6.62,9.56-6.86,15.65v194.89c.23,6.1,2.52,11.32,6.86,15.65,4.34,4.34,9.56,6.51,15.65,6.51h4.57v3.52h-97.09v-3.52h4.57c6.1,0,11.37-2.17,15.83-6.51,4.46-4.34,6.68-9.56,6.68-15.65v-90.06h-123.83v90.06c.23,6.1,2.52,11.32,6.86,15.65,4.34,4.34,9.56,6.51,15.65,6.51h4.57v3.52h-97.09v-3.52h4.57c6.1,0,11.32-2.17,15.65-6.51,4.34-4.34,6.62-9.56,6.86-15.65v-194.89c-.23-6.1-2.52-11.32-6.86-15.65-4.34-4.34-9.56-6.51-15.65-6.51h-4.57v-3.52h97.09v3.52h-4.57c-6.1,0-11.32,2.17-15.65,6.51-4.34,4.34-6.63,9.56-6.86,15.65v91.46h123.83v-91.46c0-6.1-2.23-11.32-6.68-15.65s-9.73-6.51-15.83-6.51h-4.57v-3.52h68.95ZM3102.49,519.18c17.59,0,32.89-4.69,45.91-14.07,13.02-9.38,23.1-22.63,30.25-39.75,7.15-17.12,10.73-37.41,10.73-60.86s-3.58-43.74-10.73-60.86c-7.15-17.12-17.24-30.37-30.25-39.75-13.02-9.38-28.32-14.07-45.91-14.07s-32.89,4.69-45.91,14.07c-13.02,9.38-23.1,22.63-30.25,39.75-7.15,17.12-10.73,37.41-10.73,60.86s3.58,43.74,10.73,60.86c7.15,17.12,17.24,30.37,30.25,39.75,13.02,9.38,28.32,14.07,45.91,14.07h0ZM3102.49,276.45c26.97,0,50.6,5.22,70.89,15.65,20.29,10.44,35.94,25.27,46.96,44.5,11.02,19.23,16.53,41.86,16.53,67.89s-5.51,48.66-16.53,67.9c-11.02,19.23-26.68,34.06-46.96,44.5-20.29,10.44-43.92,15.65-70.89,15.65s-50.89-5.22-71.06-15.65c-20.17-10.44-35.76-25.27-46.79-44.5-11.02-19.23-16.53-41.86-16.53-67.9s5.51-48.66,16.53-67.89c11.02-19.23,26.62-34.06,46.79-44.5,20.17-10.44,43.86-15.65,71.06-15.65h0ZM3581.34,281.37v3.52h-5.63c-5.16,0-9.56,1.64-13.19,4.93-3.64,3.28-5.45,7.5-5.45,12.66v136.85c0,18.76-3.99,35.12-11.96,49.07-7.97,13.95-19.41,24.8-34.3,32.54-14.89,7.74-32.54,11.61-52.94,11.61-22.98,0-42.63-3.81-58.92-11.43-16.3-7.62-28.67-18.41-37.11-32.36-8.44-13.95-12.66-30.31-12.66-49.07v-137.2c0-5.16-1.82-9.38-5.45-12.66-3.64-3.28-8.03-4.93-13.19-4.93h-5.63v-3.52h91.46v3.52h-5.63c-5.16,0-9.56,1.64-13.19,4.93-3.64,3.28-5.45,7.5-5.45,12.66v133.68c0,16.65,2.87,31.19,8.62,43.62,5.75,12.43,13.9,22.05,24.45,28.85,10.55,6.8,22.87,10.2,36.94,10.2,15.01,0,27.91-3.22,38.7-9.67,10.79-6.45,19.17-15.48,25.15-27.09,5.98-11.61,8.97-25.39,8.97-41.34v-138.25c0-5.16-1.82-9.38-5.45-12.66-3.64-3.28-8.03-4.93-13.19-4.93h-5.63v-3.52h70.71ZM3746.4,276.45c4.46,0,9.73.23,15.83.7,6.1.47,12.25,1.11,18.47,1.94,2.22.29,4.36.59,6.41.88h20.85l-.35,7.39h-.2l-2.61,41.51h-3.52c0-11.96-4.28-21.46-12.84-28.49-8.56-7.04-19.64-10.55-33.24-10.55s-24.45,3.52-32.54,10.55c-8.09,7.04-12.25,15.6-12.49,25.68-.47,5.86,1.23,11.55,5.1,17.06,3.87,5.51,9.09,10.61,15.65,15.3l67.89,50.31c9.62,6.33,16.65,14.01,21.11,23.04,4.46,9.03,6.45,19.17,5.98,30.43-.7,21.58-8.5,38.7-23.39,51.36-14.89,12.66-35.12,19-60.68,19-8.68,0-17.53-.76-26.56-2.29-9.03-1.52-17.3-3.87-24.8-7.04-7.51-3.17-13.48-6.98-17.94-11.43-1.41-4.69-1.99-10.38-1.76-17.06.23-6.68,1.17-13.6,2.81-20.76,1.64-7.15,3.64-13.19,5.98-18.12h3.17c-.94,11.96,1.06,22.81,5.98,32.54,4.92,9.73,12.14,17.35,21.63,22.87,9.5,5.51,20.7,8.15,33.6,7.92,14.54-.47,26.21-4.57,35-12.31,8.79-7.74,13.19-17.71,13.19-29.9,0-7.03-1.88-13.43-5.63-19.17-3.75-5.75-9.62-10.96-17.59-15.65l-63.67-48.2c-10.79-7.04-18.47-15.54-23.04-25.5-4.57-9.97-6.51-20.34-5.8-31.13.7-11.26,3.87-21.52,9.5-30.78,5.63-9.26,13.54-16.59,23.75-21.99,10.2-5.39,22.46-8.09,36.76-8.09Z"/>
    </g>
  </g>
</svg>