<?xml version="1.0" encoding="UTF-8"?>
<svg id="Layer_1" xmlns="http://www.w3.org/2000/svg" version="1.1" viewBox="0 0 2048 2048">
  <!-- Generator: Adobe Illustrator 30.1.0, SVG Export Plug-In . SVG Version: 2.1.1 Build 136)  -->
  <defs>
    <style>
      .st0 {
        fill: #ac946d;
      }
    </style>
  </defs>
  <path class="st0" d="M2036.21,846.75c-32.23-228.49-119.71-434.25-293.41-591.16C1592.17,119.52,1413.74,47.28,1215.09,15.54c-34.07-5.3-68.35-9.14-102.75-11.53-18.95-1.31-43.57-1.72-61.8-3.88l-1.03-.13H0v23.78c24.55-.72,47.48-1.19,71.58,4.78,73.03,18.1,132.2,84.87,133.06,161.45.51,45.3.29,90.77.3,136.13l-.02,251.08.05,730.97-.02,375.44-.02,111.42c0,15.26-.4,31.17-.03,46.37,2.32,96.71-74.59,179.71-172.9,181.6-10.67.15-21.33.22-32,.19v24.79h1040.84c11.9-1.94,41-2.48,54.16-3.31,28.76-1.94,57.44-4.98,85.97-9.13,182.69-26.27,358.85-90.7,505.23-204.88,198.92-155.16,305.32-361.67,346-607.86,5.43-33.35,9.44-66.91,12.02-100.6,1.26-17.31,1.53-42.45,3.64-58.69l.14-1.03v-88.34c-1.79-12.91-2.39-33.07-3.38-46.65-1.92-27-4.73-53.94-8.41-80.76ZM1534.67,1717.81c-10.78,11.93-21.88,23.55-33.3,34.86-130.17,128.33-300.26,191.71-480.8,204.13-33.59,2.31-66.52,1.78-100.13,1.68l-119.05-.12-340.24-.13c-1.59-78.45-.21-161.57-.21-240.38v-462.5s.02-1165.99.02-1165.99l364.18.1,108.2.02c39.89-.05,76.34-.31,116.29,2.83,157.67,11.04,307.42,73.26,426.48,177.21,193.79,171.24,270.6,413.26,285.77,664.81,16.42,272.2-42.35,574.35-227.2,783.49Z"/>
  <path class="st0" d="M1562.5,785.54c-11.62-95.9-47.05-173.38-124.36-234.26-95.74-75.4-207.75-82.34-323.89-82.34h-110.7s-388.69.01-388.69.01l-.05,18.18c32.71-.49,58.59,1.08,86.91,19.8,38.74,25.6,48.97,61.94,49.22,106.36l.07,681.73v202.83s.07,60.34.07,60.34c.03,41.92-1.05,82.36-33.12,114.6-27.58,27.72-60.66,34.02-98.51,33.94l-4.44-.02-.03,18.25,484.94-.08.13-18.07c-40.97-.12-90.07-8.36-113.33-46.95-23.84-31.27-22.94-69.84-22.93-106.93l.05-69.9.13-223.83-.41-726.13,89.76-.11c40.62-.04,71.57-1.88,111.77,8,271.51,70.04,241.02,651-138.02,603.59l-4.77,16.99c86.31,49.21,179.43,62.62,275.59,36.34,91.77-24.68,169.9-84.94,217.09-167.44,23.04-40.61,38.35-85.15,45.15-131.35.89-5.8,3.16-22.51,2.92-27.95,4.14-16.97,1.12-67.05-.56-85.6Z"/>
</svg>